<?xml version="1.0" encoding="utf-8"?>
<!-- Generator: Adobe Illustrator 20.1.0, SVG Export Plug-In . SVG Version: 6.00 Build 0)  -->
<svg version="1.1" id="Layer_1" xmlns="http://www.w3.org/2000/svg" xmlns:xlink="http://www.w3.org/1999/xlink" x="0px" y="0px"
	 viewBox="0 0 500 500" style="enable-background:new 0 0 500 500;" xml:space="preserve">
<style type="text/css">
	.st0{fill:#FFFFFF;}
</style>
<rect width="500" height="500"/>
<path class="st0" d="M367.3,359.1H132.6c-9.5,0-17.3-7.6-17.3-16.9v-4.1c0-9.3,7.7-16.9,17.3-16.9h234.7c9.5,0,17.3,7.6,17.3,16.9
	v4.1C384.6,351.5,376.9,359.1,367.3,359.1z M367.3,268.9H132.6c-9.5,0-17.3-7.6-17.3-16.9V248c0-9.3,7.7-16.9,17.3-16.9h234.7
	c9.5,0,17.3,7.6,17.3,16.9v4.1C384.6,261.4,376.9,268.9,367.3,268.9z M367.3,178.8H132.6c-9.5,0-17.3-7.6-17.3-16.9v-4.1
	c0-9.3,7.7-16.9,17.3-16.9h234.7c9.5,0,17.3,7.6,17.3,16.9v4.1C384.6,171.3,376.9,178.8,367.3,178.8z"/>
</svg>
