<?xml version="1.0" encoding="utf-8"?>
<!-- Generator: Adobe Illustrator 19.1.0, SVG Export Plug-In . SVG Version: 6.00 Build 0)  -->
<svg version="1.1" id="Layer_1" xmlns="http://www.w3.org/2000/svg" xmlns:xlink="http://www.w3.org/1999/xlink" x="0px" y="0px"
	 width="500px" height="500px" viewBox="0 0 500 500" style="enable-background:new 0 0 500 500;" xml:space="preserve">
<style type="text/css">
	.st0{fill:#165C8D;}
	.st1{fill:#C2DCED;}
</style>
<g>
	<polyline class="st0" points="500,500 0,500 0,0 500,0 500,500 	"/>
	<g>
		<path class="st1" d="M339.1,154.3L339.1,154.3H160.9l0,0c-7.1,0-13.2,6.1-13.2,13.2v19.3c0,7.1,5.1,12.2,11.2,13.2h3.1h175.2h3.1
			c6.1-1,11.2-6.1,11.2-13.2l0,0v-18.3l0,0C351.3,160.4,345.2,154.3,339.1,154.3"/>
		<path class="st1" d="M339.1,300.9h-2H160.9h-1c-7.1,0-12.2,6.1-12.2,13.2l0,0v18.3l0,0c0,7.1,6.1,13.2,13.2,13.2h178.2
			c7.1,0,12.2-5.1,13.2-12.2v-2v-17.3v-2C351.3,307,346.2,301.9,339.1,300.9"/>
		<path class="st1" d="M339.1,227.6h-1H161.9h-2c-7.1,0-12.2,6.1-12.2,13.2v19.3c0,7.1,5.1,12.2,12.2,13.2h1h176.2h3.1
			c6.1-1,12.2-6.1,12.2-13.2v-19.3C351.3,233.7,346.2,227.6,339.1,227.6"/>
	</g>
</g>
</svg>
