<svg id="Layer_1" data-name="Layer 1" xmlns="http://www.w3.org/2000/svg" viewBox="0 0 500 500"><defs><style>.cls-1{fill:#fff;}</style></defs><title>Artboard 1</title><rect width="500" height="500"/><path class="cls-1" d="M367.35,359.05H132.64a17.06,17.06,0,0,1-17.26-16.88v-4.09a17.07,17.07,0,0,1,17.26-16.9h234.7a17.08,17.08,0,0,1,17.26,16.9v4.09A17.07,17.07,0,0,1,367.35,359.05Zm0-90.12H132.64a17.06,17.06,0,0,1-17.26-16.87V248a17.07,17.07,0,0,1,17.26-16.88h234.7A17.08,17.08,0,0,1,384.6,248v4.09A17.07,17.07,0,0,1,367.35,268.94Zm0-90.09H132.64A17.06,17.06,0,0,1,115.38,162V157.9A17.07,17.07,0,0,1,132.64,141h234.7a17.07,17.07,0,0,1,17.26,16.9V162A17.07,17.07,0,0,1,367.35,178.85Z"/></svg>